# xmcd
#
# Track frame offsets:
#	150
#	14546
#	49849
#	69768
#	121837
#
# Disc length: 1811 seconds
#
# Revision: 1
# Processed by: cddbd v1.5.2PL0 Copyright (c) Steve Scherf et al.
# Submitted via: audiograbber 1.83.01
#
DISCID=38071105
DTITLE=Britney Spears - Circus
DYEAR=2009
DGENRE=
TTITLE0=Circus
TTITLE1=Circus [Tom Neville's Ringleader Remix]
TTITLE2=Circus [Diplo Circus Remix]
TTITLE3=Circus [Junior Vasquez Club Circus
TTITLE4=Daten-CD
EXTD=
EXTT0=
EXTT1=
EXTT2=
EXTT3=
EXTT4=
PLAYORDER=
